<svg
   xmlns:dc="http://purl.org/dc/elements/1.1/"
   xmlns:cc="http://creativecommons.org/ns#"
   xmlns:rdf="http://www.w3.org/1999/02/22-rdf-syntax-ns#"
   xmlns:svg="http://www.w3.org/2000/svg"
   xmlns="http://www.w3.org/2000/svg"
   xmlns:sodipodi="http://sodipodi.sourceforge.net/DTD/sodipodi-0.dtd"
   xmlns:inkscape="http://www.inkscape.org/namespaces/inkscape"
   version="1.1"
   id="svg815"
   xml:space="preserve"
   width="8em"
   height="8em"
   viewBox="0 0 416 416"
   sodipodi:docname="indecs.svg"
   inkscape:version="0.92.3 (2405546, 2018-03-11)"><metadata
     id="metadata821"><rdf:RDF><cc:Work
         rdf:about=""><dc:format>image/svg+xml</dc:format><dc:type
           rdf:resource="http://purl.org/dc/dcmitype/StillImage" /><dc:title></dc:title></cc:Work></rdf:RDF></metadata><defs
     id="defs819" /><sodipodi:namedview
     bordercolor="#666666"
     borderopacity="1"
     objecttolerance="10"
     gridtolerance="10"
     guidetolerance="10"
     inkscape:pageopacity="0"
     inkscape:pageshadow="2"
     inkscape:window-width="1875"
     inkscape:window-height="995"
     id="namedview817"
     showgrid="false"
     inkscape:zoom="1.6045885"
     inkscape:cx="146.95984"
     inkscape:cy="214.51628"
     inkscape:window-x="0"
     inkscape:window-y="0"
     inkscape:window-maximized="0"
     inkscape:current-layer="g823" /><g
     id="g823"
     inkscape:groupmode="layer"
     inkscape:label="Indecs_logo_ei_tekstiä"
     transform="matrix(1.3333333,0,0,-1.3333333,0,416)"><path
       d="m 155.906,283.614 c 70.379,0 127.519,-57.14 127.519,-127.52 0,-70.3794 -57.14,-127.5189 -127.519,-127.5189 -70.3803,0 -127.5199,57.1395 -127.5199,127.5189 0,70.38 57.1396,127.52 127.5199,127.52 z"
       style="fill:#ffffff;fill-opacity:0;fill-rule:evenodd;stroke:none"
       id="path825"
       inkscape:connector-curvature="0" /><path
       d="m 155.906,71.0551 -3.562,8.075 -1.287,3.179 -0.923,2.3802 -0.738,1.9687 -0.62,1.7069 -0.539,1.5222 -0.477,1.3823 -0.429,1.2728 -0.391,1.1835 -0.359,1.1088 -0.332,1.046 -0.308,0.9912 -0.289,0.9434 -0.271,0.9014 -0.256,0.8637 -0.242,0.8308 -0.228,0.8 -0.218,0.772 -0.207,0.746 -0.199,0.724 -0.189,0.703 -0.182,0.682 -0.174,0.664 -0.167,0.647 -0.161,0.631 -0.155,0.616 -0.15,0.602 -0.144,0.589 -0.139,0.576 -0.135,0.564 -0.131,0.553 -0.126,0.542 -0.122,0.533 -0.119,0.523 -0.115,0.513 -0.112,0.505 -0.109,0.497 -0.105,0.488 -0.103,0.481 -0.101,0.474 -0.097,0.467 -0.095,0.46 -0.092,0.454 -0.09,0.447 -0.089,0.441 -0.085,0.436 -0.084,0.43 -0.081,0.425 -0.08,0.42 -0.078,0.414 -0.076,0.41 -0.074,0.406 -0.073,0.4 -0.072,0.397 -0.069,0.392 -0.068,0.388 -0.067,0.384 -0.064,0.38 -0.064,0.377 -0.063,0.373 -0.061,0.369 -0.06,0.366 -0.059,0.362 -0.057,0.36 -0.056,0.356 -0.055,0.354 -0.054,0.35 -0.053,0.347 -0.052,0.345 -0.051,0.342 -0.05,0.339 -0.049,0.336 -0.048,0.334 -0.047,0.332 -0.046,0.329 -0.045,0.327 -0.045,0.324 -0.044,0.323 -0.042,0.32 -0.042,0.318 -0.041,0.316 -0.041,0.314 -0.04,0.311 -0.038,0.31 -0.039,0.308 -0.037,0.307 -0.037,0.304 -0.036,0.302 -0.036,0.301 -0.035,0.3 -0.034,0.297 -0.033,0.296 -0.033,0.294 -0.032,0.293 -0.032,0.291 -0.031,0.29 -0.031,0.288 -0.03,0.287 -0.029,0.286 -0.029,0.284 -0.028,0.283 -0.028,0.281 -0.027,0.28 -0.027,0.28 -0.026,0.277 -0.026,0.277 -0.025,0.275 -0.025,0.274 -0.024,0.274 -0.024,0.271 -0.024,0.272 -0.022,0.269 -0.023,0.27 -0.022,0.268 -0.021,0.266 -0.021,0.266 -0.021,0.265 -0.02,0.264 -0.02,0.263 -0.02,0.263 -0.019,0.261 -0.018,0.261 -0.019,0.259 -0.017,0.26 -0.018,0.258 -0.017,0.257 -0.017,0.257 -0.016,0.255 -0.016,0.256 -0.016,0.254 -0.015,0.254 -0.014,0.253 -0.015,0.252 -0.014,0.252 -0.014,0.251 -0.013,0.251 -0.013,0.25 -0.013,0.249 -0.012,0.249 -0.013,0.248 -0.011,0.248 -0.012,0.247 -0.011,0.246 -0.01,0.247 -0.011,0.245 -0.01,0.245 -0.01,0.245 -0.009,0.244 -0.01,0.244 -0.008,0.244 -0.009,0.243 -0.008,0.242 -0.008,0.243 -0.008,0.241 -0.007,0.242 -0.007,0.241 -0.006,0.241 -0.007,0.24 -0.006,0.241 -0.006,0.239 -0.006,0.24 -0.005,0.239 -0.004,0.239 -0.005,0.239 -0.004,0.238 -0.005,0.239 -0.004,0.238 -0.003,0.238 -0.003,0.238 -0.003,0.237 -0.003,0.238 -0.002,0.237 -0.003,0.237 -0.001,0.237 -0.002,0.236 -0.001,0.237 -0.001,0.236 -10e-4,0.237 v 0.236 0.473 0.236 l 0.003,0.71 0.002,0.236 0.001,0.237 0.005,0.474 0.006,0.475 0.006,0.476 0.004,0.238 0.005,0.238 0.004,0.239 0.009,0.478 0.005,0.239 0.006,0.24 0.006,0.239 0.006,0.241 0.013,0.481 0.014,0.483 0.008,0.241 0.008,0.243 0.008,0.242 0.009,0.243 0.008,0.244 0.01,0.244 0.009,0.244 0.01,0.245 0.01,0.245 0.011,0.245 0.01,0.247 0.011,0.246 0.012,0.247 0.011,0.248 0.025,0.497 0.013,0.249 0.013,0.25 0.013,0.251 0.014,0.251 0.014,0.252 0.015,0.252 0.014,0.253 0.015,0.254 0.016,0.254 0.032,0.511 0.017,0.257 0.017,0.257 0.018,0.258 0.017,0.26 0.019,0.259 0.018,0.261 0.019,0.261 0.02,0.263 0.02,0.263 0.02,0.264 0.021,0.265 0.021,0.266 0.021,0.266 0.022,0.268 0.023,0.27 0.022,0.269 0.024,0.272 0.024,0.271 0.024,0.274 0.025,0.274 0.025,0.275 0.026,0.277 0.026,0.277 0.027,0.28 0.027,0.28 0.028,0.281 0.028,0.283 0.029,0.284 0.029,0.286 0.03,0.287 0.031,0.288 0.031,0.29 0.032,0.291 0.032,0.293 0.033,0.294 0.033,0.296 0.034,0.297 0.035,0.3 0.036,0.301 0.036,0.302 0.037,0.304 0.037,0.307 0.039,0.308 0.038,0.309 0.04,0.312 0.041,0.314 0.041,0.316 0.042,0.318 0.042,0.32 0.044,0.323 0.045,0.324 0.045,0.327 0.046,0.329 0.047,0.331 0.048,0.335 0.049,0.336 0.05,0.339 0.051,0.342 0.052,0.345 0.053,0.347 0.054,0.35 0.055,0.354 0.056,0.356 0.057,0.359 0.059,0.363 0.06,0.366 0.061,0.369 0.063,0.373 0.064,0.377 0.064,0.38 0.067,0.384 0.068,0.388 0.069,0.392 0.072,0.397 0.073,0.4 0.074,0.405 0.076,0.411 0.078,0.414 0.08,0.42 0.081,0.425 0.084,0.43 0.085,0.436 0.089,0.441 0.09,0.447 0.092,0.454 0.095,0.46 0.097,0.467 0.101,0.474 0.103,0.481 0.105,0.488 0.109,0.497 0.112,0.505 0.115,0.513 0.119,0.523 0.122,0.533 0.126,0.542 0.131,0.553 0.135,0.564 0.139,0.576 0.144,0.589 0.15,0.602 0.155,0.616 0.161,0.631 0.167,0.647 0.174,0.664 0.182,0.682 0.189,0.703 0.199,0.724 0.207,0.746 0.218,0.772 0.228,0.8 0.242,0.831 0.256,0.863 0.271,0.902 0.289,0.943 0.308,0.991 0.332,1.046 0.359,1.109 0.391,1.184 0.429,1.273 0.477,1.382 0.539,1.522 0.62,1.707 0.738,1.969 0.923,2.38 1.287,3.179 3.562,8.075"
       style="fill:none;stroke:currentColor;stroke-width:2;stroke-linecap:butt;stroke-linejoin:miter;stroke-miterlimit:10;stroke-dasharray:none;stroke-opacity:1"
       id="path827"
       inkscape:connector-curvature="0" /><path
       d="m 155.906,71.0551 3.561,8.075 1.287,3.179 0.923,2.3802 0.738,1.9687 0.62,1.7069 0.539,1.5222 0.477,1.3823 0.429,1.2728 0.391,1.1835 0.359,1.1088 0.332,1.046 0.308,0.9912 0.289,0.9434 0.271,0.9014 0.256,0.8637 0.242,0.8308 0.228,0.8 0.218,0.772 0.207,0.746 0.199,0.724 0.189,0.703 0.182,0.682 0.174,0.664 0.167,0.647 0.161,0.631 0.155,0.616 0.15,0.602 0.144,0.589 0.139,0.576 0.135,0.564 0.131,0.553 0.126,0.542 0.122,0.533 0.119,0.523 0.115,0.513 0.112,0.505 0.109,0.497 0.105,0.488 0.103,0.481 0.101,0.474 0.097,0.467 0.095,0.46 0.092,0.454 0.09,0.447 0.089,0.441 0.085,0.436 0.084,0.43 0.081,0.425 0.08,0.42 0.078,0.414 0.076,0.41 0.074,0.406 0.073,0.4 0.072,0.397 0.069,0.392 0.068,0.388 0.067,0.384 0.064,0.38 0.064,0.377 0.063,0.373 0.061,0.369 0.06,0.366 0.059,0.362 0.057,0.36 0.056,0.356 0.055,0.354 0.054,0.35 0.053,0.347 0.052,0.345 0.051,0.342 0.05,0.339 0.049,0.336 0.048,0.334 0.047,0.332 0.046,0.329 0.045,0.327 0.045,0.324 0.044,0.323 0.042,0.32 0.042,0.318 0.041,0.316 0.041,0.314 0.04,0.311 0.038,0.31 0.039,0.308 0.037,0.307 0.037,0.304 0.036,0.302 0.036,0.301 0.035,0.3 0.034,0.297 0.033,0.296 0.033,0.294 0.032,0.293 0.032,0.291 0.031,0.29 0.031,0.288 0.03,0.287 0.029,0.286 0.029,0.284 0.028,0.283 0.028,0.281 0.027,0.28 0.027,0.28 0.026,0.277 0.026,0.277 0.025,0.275 0.025,0.274 0.024,0.274 0.024,0.271 0.024,0.272 0.022,0.269 0.023,0.27 0.022,0.268 0.022,0.266 0.02,0.266 0.021,0.265 0.02,0.264 0.02,0.263 0.02,0.263 0.019,0.261 0.018,0.261 0.019,0.259 0.017,0.26 0.018,0.258 0.017,0.257 0.017,0.257 0.032,0.511 0.016,0.254 0.015,0.254 0.014,0.253 0.015,0.252 0.014,0.252 0.014,0.251 0.013,0.251 0.013,0.25 0.013,0.249 0.025,0.497 0.011,0.248 0.012,0.247 0.011,0.246 0.01,0.247 0.011,0.245 0.01,0.245 0.01,0.245 0.009,0.244 0.01,0.244 0.008,0.244 0.009,0.243 0.008,0.242 0.008,0.243 0.008,0.241 0.014,0.483 0.013,0.481 0.006,0.241 0.006,0.239 0.006,0.24 0.005,0.239 0.009,0.478 0.004,0.238 0.005,0.239 0.004,0.238 0.006,0.476 0.006,0.475 0.005,0.474 0.001,0.237 0.002,0.236 0.003,0.71 v 0.236 0.473 0.236 l -0.001,0.237 -0.001,0.236 -10e-4,0.237 -0.002,0.236 -0.001,0.237 -0.003,0.237 -0.002,0.237 -0.003,0.238 -0.003,0.237 -0.003,0.238 -0.003,0.238 -0.004,0.238 -0.005,0.238 -0.004,0.239 -0.004,0.239 -0.005,0.239 -0.005,0.239 -0.006,0.24 -0.006,0.239 -0.006,0.241 -0.006,0.24 -0.007,0.241 -0.007,0.241 -0.007,0.242 -0.008,0.241 -0.008,0.243 -0.008,0.242 -0.009,0.243 -0.008,0.244 -0.01,0.244 -0.009,0.244 -0.01,0.245 -0.01,0.245 -0.011,0.245 -0.01,0.247 -0.011,0.246 -0.012,0.247 -0.011,0.248 -0.013,0.248 -0.012,0.249 -0.013,0.249 -0.013,0.25 -0.013,0.251 -0.014,0.251 -0.014,0.252 -0.015,0.252 -0.014,0.253 -0.015,0.254 -0.016,0.254 -0.016,0.256 -0.016,0.255 -0.017,0.257 -0.017,0.257 -0.018,0.258 -0.017,0.26 -0.019,0.259 -0.018,0.261 -0.019,0.261 -0.02,0.263 -0.02,0.263 -0.02,0.264 -0.021,0.265 -0.02,0.266 -0.022,0.266 -0.022,0.268 -0.023,0.27 -0.022,0.269 -0.024,0.272 -0.024,0.271 -0.024,0.274 -0.025,0.274 -0.025,0.275 -0.026,0.277 -0.026,0.277 -0.027,0.28 -0.027,0.28 -0.028,0.281 -0.028,0.283 -0.029,0.284 -0.029,0.286 -0.03,0.287 -0.031,0.288 -0.031,0.29 -0.032,0.291 -0.032,0.293 -0.033,0.294 -0.033,0.296 -0.034,0.297 -0.035,0.3 -0.036,0.301 -0.036,0.302 -0.037,0.304 -0.037,0.307 -0.039,0.308 -0.038,0.309 -0.04,0.312 -0.041,0.314 -0.041,0.316 -0.042,0.318 -0.042,0.32 -0.044,0.323 -0.045,0.324 -0.045,0.327 -0.046,0.329 -0.047,0.331 -0.048,0.335 -0.049,0.336 -0.05,0.339 -0.051,0.342 -0.052,0.345 -0.053,0.347 -0.054,0.35 -0.055,0.354 -0.056,0.356 -0.057,0.359 -0.059,0.363 -0.06,0.366 -0.061,0.369 -0.063,0.373 -0.064,0.377 -0.064,0.38 -0.067,0.384 -0.068,0.388 -0.069,0.392 -0.072,0.397 -0.073,0.4 -0.074,0.405 -0.076,0.411 -0.078,0.414 -0.08,0.42 -0.081,0.425 -0.084,0.43 -0.085,0.436 -0.089,0.441 -0.09,0.447 -0.092,0.454 -0.095,0.46 -0.097,0.467 -0.101,0.474 -0.103,0.481 -0.105,0.488 -0.109,0.497 -0.112,0.505 -0.115,0.513 -0.119,0.523 -0.122,0.533 -0.126,0.542 -0.131,0.553 -0.135,0.564 -0.139,0.576 -0.144,0.589 -0.15,0.602 -0.155,0.616 -0.161,0.631 -0.167,0.647 -0.174,0.664 -0.182,0.682 -0.189,0.703 -0.199,0.724 -0.207,0.746 -0.218,0.772 -0.228,0.8 -0.242,0.831 -0.256,0.863 -0.271,0.902 -0.289,0.943 -0.308,0.991 -0.332,1.046 -0.359,1.109 -0.391,1.184 -0.429,1.273 -0.477,1.382 -0.539,1.522 -0.62,1.707 -0.738,1.969 -0.923,2.38 -1.287,3.179 -3.561,8.075"
       style="fill:none;stroke:currentColor;stroke-width:2;stroke-linecap:butt;stroke-linejoin:miter;stroke-miterlimit:10;stroke-dasharray:none;stroke-opacity:1"
       id="path829"
       inkscape:connector-curvature="0" /><path
       d="m 155.906,71.0551 -9.053,5.2866 -3.428,2.3722 -2.505,1.8784 -2.029,1.6186 -1.725,1.4494 -1.51,1.328 -1.349,1.2341 -1.22,1.1584 -1.116,1.0965 -1.029,1.0441 -0.956,0.9983 -0.892,0.9581 -0.836,0.9231 -0.787,0.8915 -0.743,0.8627 -0.704,0.8367 -0.669,0.8136 -0.636,0.7908 -0.607,0.771 -0.58,0.7522 -0.555,0.7346 -0.532,0.7181 -0.511,0.7029 -0.49,0.688 -0.472,0.675 -0.455,0.662 -0.439,0.649 -0.422,0.637 -0.409,0.627 -0.395,0.616 -0.382,0.606 -0.37,0.596 -0.358,0.587 -0.347,0.578 -0.336,0.569 -0.326,0.561 -0.317,0.554 -0.308,0.546 -0.299,0.538 -0.291,0.531 -0.283,0.525 -0.275,0.518 -0.267,0.512 -0.261,0.505 -0.254,0.499 -0.247,0.494 -0.241,0.488 -0.235,0.482 -0.228,0.477 -0.224,0.472 -0.218,0.467 -0.212,0.462 -0.208,0.458 -0.202,0.452 -0.197,0.448 -0.194,0.444 -0.188,0.439 -0.184,0.436 -0.18,0.431 -0.176,0.427 -0.172,0.423 -0.168,0.42 -0.164,0.416 -0.161,0.412 -0.157,0.409 -0.154,0.405 -0.15,0.402 -0.147,0.398 -0.144,0.395 -0.141,0.392 -0.137,0.389 -0.135,0.386 -0.132,0.383 -0.129,0.38 -0.126,0.377 -0.124,0.374 -0.121,0.372 -0.119,0.368 -0.116,0.366 -0.114,0.364 -0.111,0.361 -0.109,0.359 -0.107,0.355 -0.104,0.354 -0.102,0.351 -0.1,0.349 -0.098,0.347 -0.096,0.344 -0.095,0.342 -0.092,0.34 -0.09,0.338 -0.089,0.336 -0.086,0.333 -0.085,0.332 -0.083,0.33 -0.081,0.327 -0.079,0.326 -0.078,0.324 -0.076,0.322 -0.075,0.32 -0.073,0.318 -0.072,0.317 -0.07,0.314 -0.068,0.313 -0.068,0.312 -0.065,0.309 -0.064,0.308 -0.063,0.307 -0.062,0.305 -0.06,0.303 -0.058,0.302 -0.058,0.3 -0.056,0.298 -0.055,0.298 -0.054,0.295 -0.053,0.295 -0.051,0.293 -0.05,0.291 -0.049,0.291 -0.048,0.288 -0.047,0.288 -0.045,0.286 -0.045,0.285 -0.044,0.284 -0.042,0.282 -0.041,0.281 -0.041,0.28 -0.039,0.279 -0.038,0.277 -0.038,0.276 -0.036,0.276 -0.035,0.274 -0.035,0.273 -0.034,0.272 -0.032,0.271 -0.032,0.27 -0.031,0.268 -0.03,0.268 -0.029,0.267 -0.028,0.265 -0.028,0.265 -0.026,0.264 -0.026,0.263 -0.025,0.262 -0.024,0.261 -0.023,0.259 -0.023,0.26 -0.021,0.258 -0.021,0.257 -0.021,0.257 -0.019,0.255 -0.018,0.255 -0.018,0.254 -0.017,0.253 -0.017,0.253 -0.015,0.251 -0.016,0.251 -0.014,0.25 -0.013,0.25 -0.014,0.248 -0.012,0.248 -0.011,0.247 -0.011,0.247 -0.011,0.246 -0.009,0.245 -0.009,0.244 -0.008,0.244 -0.008,0.244 -0.007,0.242 -0.006,0.242 -0.006,0.241 -0.005,0.241 -0.004,0.24 -0.004,0.24 -0.003,0.239 -0.003,0.238 -0.002,0.238 -0.002,0.238 -0.001,0.237 v 0.236 l 0.001,0.474 0.004,0.476 0.003,0.238 0.003,0.239 0.004,0.24 0.004,0.24 0.005,0.241 0.006,0.241 0.006,0.242 0.007,0.242 0.008,0.244 0.008,0.243 0.009,0.245 0.009,0.245 0.011,0.246 0.011,0.247 0.011,0.247 0.012,0.248 0.014,0.248 0.013,0.25 0.014,0.25 0.016,0.251 0.015,0.251 0.017,0.253 0.017,0.253 0.018,0.254 0.018,0.255 0.019,0.255 0.021,0.257 0.021,0.257 0.021,0.258 0.023,0.26 0.023,0.259 0.024,0.261 0.025,0.262 0.026,0.263 0.026,0.264 0.028,0.265 0.028,0.265 0.029,0.267 0.03,0.268 0.031,0.268 0.032,0.27 0.032,0.271 0.034,0.272 0.035,0.273 0.035,0.274 0.036,0.276 0.038,0.276 0.038,0.277 0.039,0.279 0.041,0.28 0.041,0.281 0.042,0.282 0.044,0.284 0.045,0.285 0.045,0.286 0.047,0.288 0.048,0.288 0.049,0.291 0.05,0.291 0.051,0.293 0.053,0.295 0.054,0.295 0.055,0.298 0.056,0.298 0.058,0.3 0.058,0.302 0.06,0.303 0.062,0.305 0.063,0.307 0.064,0.308 0.065,0.309 0.068,0.311 0.068,0.314 0.07,0.314 0.072,0.317 0.073,0.318 0.075,0.32 0.076,0.322 0.078,0.324 0.079,0.326 0.081,0.327 0.083,0.33 0.085,0.332 0.086,0.333 0.089,0.336 0.09,0.338 0.092,0.34 0.095,0.342 0.096,0.344 0.098,0.347 0.1,0.349 0.102,0.351 0.104,0.353 0.107,0.356 0.109,0.359 0.111,0.361 0.114,0.364 0.116,0.366 0.119,0.368 0.121,0.372 0.124,0.374 0.126,0.377 0.129,0.38 0.132,0.383 0.135,0.386 0.137,0.389 0.141,0.392 0.144,0.395 0.147,0.398 0.15,0.402 0.154,0.405 0.157,0.409 0.161,0.412 0.164,0.416 0.168,0.42 0.172,0.423 0.176,0.427 0.18,0.431 0.184,0.435 0.188,0.44 0.194,0.444 0.197,0.448 0.202,0.452 0.208,0.458 0.212,0.462 0.218,0.467 0.224,0.472 0.228,0.477 0.235,0.482 0.241,0.488 0.247,0.494 0.254,0.499 0.261,0.505 0.267,0.512 0.275,0.518 0.283,0.525 0.291,0.531 0.299,0.538 0.308,0.546 0.317,0.554 0.326,0.561 0.336,0.569 0.347,0.578 0.358,0.587 0.37,0.596 0.382,0.606 0.395,0.616 0.409,0.627 0.422,0.637 0.439,0.649 0.455,0.662 0.472,0.675 0.49,0.688 0.511,0.703 0.532,0.718 0.555,0.735 0.58,0.752 0.607,0.771 0.636,0.791 0.669,0.813 0.704,0.837 0.743,0.863 0.787,0.891 0.836,0.923 0.892,0.958 0.956,0.999 1.029,1.044 1.116,1.096 1.22,1.159 1.349,1.234 1.51,1.328 1.725,1.449 2.029,1.619 2.505,1.878 3.428,2.372 9.053,5.287"
       style="fill:none;stroke:currentColor;stroke-width:2;stroke-linecap:butt;stroke-linejoin:miter;stroke-miterlimit:10;stroke-dasharray:none;stroke-opacity:1"
       id="path831"
       inkscape:connector-curvature="0" /><path
       d="m 155.906,71.0551 9.052,5.2866 3.428,2.3722 2.505,1.8784 2.029,1.6186 1.725,1.4494 1.51,1.328 1.349,1.2341 1.22,1.1584 1.116,1.0965 1.029,1.0441 0.956,0.9983 0.892,0.9581 0.836,0.9231 0.787,0.8915 0.743,0.8627 0.704,0.8367 0.669,0.8136 0.636,0.7908 0.607,0.771 0.58,0.7522 0.555,0.7346 0.532,0.7181 0.511,0.7029 0.49,0.688 0.472,0.675 0.455,0.662 0.439,0.649 0.422,0.637 0.409,0.627 0.395,0.616 0.382,0.606 0.37,0.596 0.358,0.587 0.347,0.578 0.336,0.569 0.326,0.561 0.317,0.554 0.308,0.546 0.3,0.538 0.29,0.531 0.283,0.525 0.275,0.518 0.267,0.512 0.261,0.505 0.254,0.499 0.247,0.494 0.241,0.488 0.235,0.482 0.228,0.477 0.224,0.472 0.218,0.467 0.212,0.462 0.208,0.458 0.202,0.452 0.197,0.448 0.194,0.444 0.188,0.439 0.184,0.436 0.18,0.431 0.176,0.427 0.172,0.423 0.168,0.42 0.164,0.416 0.161,0.412 0.157,0.409 0.154,0.405 0.15,0.402 0.147,0.398 0.144,0.395 0.141,0.392 0.137,0.389 0.135,0.386 0.132,0.383 0.129,0.38 0.126,0.377 0.124,0.374 0.121,0.372 0.119,0.368 0.116,0.366 0.114,0.364 0.111,0.361 0.109,0.359 0.107,0.355 0.104,0.354 0.102,0.351 0.1,0.349 0.098,0.347 0.096,0.344 0.095,0.342 0.092,0.34 0.09,0.338 0.089,0.336 0.086,0.333 0.085,0.332 0.083,0.33 0.081,0.327 0.079,0.326 0.078,0.324 0.076,0.322 0.075,0.32 0.073,0.318 0.072,0.317 0.07,0.314 0.068,0.313 0.068,0.312 0.065,0.309 0.064,0.308 0.063,0.307 0.062,0.305 0.06,0.303 0.058,0.302 0.058,0.3 0.056,0.298 0.055,0.298 0.054,0.295 0.053,0.295 0.051,0.293 0.05,0.291 0.049,0.291 0.048,0.288 0.047,0.288 0.045,0.286 0.045,0.285 0.044,0.284 0.042,0.282 0.041,0.281 0.041,0.28 0.039,0.279 0.038,0.277 0.038,0.276 0.036,0.276 0.036,0.274 0.034,0.273 0.034,0.272 0.032,0.271 0.032,0.27 0.031,0.268 0.03,0.268 0.029,0.267 0.028,0.265 0.028,0.265 0.026,0.264 0.026,0.263 0.025,0.262 0.024,0.261 0.023,0.259 0.023,0.26 0.021,0.258 0.021,0.257 0.021,0.257 0.019,0.255 0.018,0.255 0.018,0.254 0.017,0.253 0.017,0.253 0.015,0.251 0.016,0.251 0.014,0.25 0.013,0.25 0.014,0.248 0.012,0.248 0.011,0.247 0.011,0.247 0.011,0.246 0.009,0.245 0.009,0.244 0.008,0.244 0.008,0.244 0.007,0.242 0.006,0.242 0.006,0.241 0.005,0.241 0.004,0.24 0.004,0.24 0.003,0.239 0.003,0.238 0.004,0.476 0.001,0.473 v 0.237 l -0.001,0.237 -0.002,0.238 -0.002,0.238 -0.003,0.238 -0.003,0.239 -0.004,0.24 -0.004,0.24 -0.005,0.241 -0.006,0.241 -0.006,0.242 -0.007,0.242 -0.008,0.244 -0.008,0.243 -0.009,0.245 -0.009,0.245 -0.011,0.246 -0.011,0.247 -0.011,0.247 -0.012,0.248 -0.014,0.248 -0.013,0.25 -0.014,0.25 -0.016,0.251 -0.015,0.251 -0.017,0.253 -0.017,0.253 -0.018,0.254 -0.018,0.255 -0.019,0.255 -0.021,0.257 -0.021,0.257 -0.021,0.258 -0.023,0.26 -0.023,0.259 -0.024,0.261 -0.025,0.262 -0.026,0.263 -0.026,0.264 -0.028,0.265 -0.028,0.265 -0.029,0.267 -0.03,0.268 -0.031,0.268 -0.032,0.27 -0.032,0.271 -0.034,0.272 -0.034,0.273 -0.036,0.274 -0.036,0.276 -0.038,0.276 -0.038,0.277 -0.039,0.279 -0.041,0.28 -0.041,0.281 -0.042,0.282 -0.044,0.284 -0.045,0.285 -0.045,0.286 -0.047,0.288 -0.048,0.288 -0.049,0.291 -0.05,0.291 -0.051,0.293 -0.053,0.295 -0.054,0.295 -0.055,0.298 -0.056,0.298 -0.058,0.3 -0.058,0.302 -0.06,0.303 -0.062,0.305 -0.063,0.307 -0.064,0.308 -0.065,0.309 -0.068,0.311 -0.068,0.314 -0.07,0.314 -0.072,0.317 -0.073,0.318 -0.075,0.32 -0.076,0.322 -0.078,0.324 -0.079,0.326 -0.081,0.327 -0.083,0.33 -0.085,0.332 -0.086,0.333 -0.089,0.336 -0.09,0.338 -0.092,0.34 -0.095,0.342 -0.096,0.344 -0.098,0.347 -0.1,0.349 -0.102,0.351 -0.104,0.353 -0.107,0.356 -0.109,0.359 -0.111,0.361 -0.114,0.364 -0.116,0.366 -0.119,0.368 -0.121,0.372 -0.124,0.374 -0.126,0.377 -0.129,0.38 -0.132,0.383 -0.135,0.386 -0.137,0.389 -0.141,0.392 -0.144,0.395 -0.147,0.398 -0.15,0.402 -0.154,0.405 -0.157,0.409 -0.161,0.412 -0.164,0.416 -0.168,0.42 -0.172,0.423 -0.176,0.427 -0.18,0.431 -0.184,0.435 -0.188,0.44 -0.194,0.444 -0.197,0.448 -0.202,0.452 -0.208,0.458 -0.212,0.462 -0.218,0.467 -0.224,0.472 -0.228,0.477 -0.235,0.482 -0.241,0.488 -0.247,0.494 -0.254,0.499 -0.261,0.505 -0.267,0.512 -0.275,0.518 -0.283,0.525 -0.29,0.531 -0.3,0.538 -0.308,0.546 -0.317,0.554 -0.326,0.561 -0.336,0.569 -0.347,0.578 -0.358,0.587 -0.37,0.596 -0.382,0.606 -0.395,0.616 -0.409,0.627 -0.422,0.637 -0.439,0.649 -0.455,0.662 -0.472,0.675 -0.49,0.688 -0.511,0.703 -0.532,0.718 -0.555,0.735 -0.58,0.752 -0.607,0.771 -0.636,0.791 -0.669,0.813 -0.704,0.837 -0.743,0.863 -0.787,0.891 -0.836,0.923 -0.892,0.958 -0.956,0.999 -1.029,1.044 -1.116,1.096 -1.22,1.159 -1.349,1.234 -1.51,1.328 -1.725,1.449 -2.029,1.619 -2.505,1.878 -3.428,2.372 -9.052,5.287"
       style="fill:none;stroke:currentColor;stroke-width:2;stroke-linecap:butt;stroke-linejoin:miter;stroke-miterlimit:10;stroke-dasharray:none;stroke-opacity:1"
       id="path833"
       inkscape:connector-curvature="0" /><path
       d="m 77.4076,123.387 0.2201,0.039 0.2197,0.039 0.4403,0.077 0.2197,0.039 0.2202,0.038 0.4403,0.077 0.2197,0.038 0.2201,0.038 0.6605,0.113 1.1008,0.187 0.6604,0.111 0.2202,0.036 0.2202,0.037 0.2201,0.036 0.2206,0.037 0.2202,0.035 0.2202,0.037 0.4403,0.072 0.2206,0.036 0.6605,0.106 0.2206,0.035 0.2202,0.036 0.2201,0.035 0.2207,0.035 0.2201,0.035 0.2206,0.035 0.4404,0.068 0.2206,0.035 0.2201,0.034 0.2207,0.034 0.4403,0.069 0.2206,0.034 0.2202,0.033 0.2206,0.034 0.2202,0.034 0.2206,0.033 0.2202,0.033 0.2206,0.033 0.2201,0.033 0.2207,0.033 0.2201,0.034 0.2207,0.032 0.2201,0.033 0.2206,0.032 0.2202,0.033 0.2206,0.032 0.2202,0.032 0.2206,0.032 0.2202,0.032 0.2206,0.032 0.2202,0.032 0.2206,0.032 0.2202,0.031 0.2206,0.032 0.2201,0.031 0.2207,0.031 0.2201,0.031 0.2207,0.031 0.2201,0.031 0.2206,0.031 0.2202,0.031 0.2206,0.03 0.2202,0.03 0.2201,0.031 0.2207,0.03 0.2201,0.03 0.2207,0.03 0.4403,0.059 0.2206,0.03 0.2202,0.03 0.2206,0.029 0.2202,0.03 0.2201,0.028 0.2202,0.03 0.2206,0.029 0.6605,0.086 0.2206,0.028 0.6605,0.085 0.2201,0.028 0.2202,0.029 0.2206,0.027 0.4408,0.056 0.66,0.082 0.66,0.081 0.22,0.027 0.22,0.027 0.661,0.079 0.219,0.026 0.661,0.078 0.22,0.026 0.22,0.026 0.219,0.026 0.221,0.025 0.219,0.025 0.22,0.026 0.22,0.025 0.22,0.025 0.44,0.05 0.22,0.025 0.439,0.049 0.22,0.024 0.22,0.024 0.659,0.073 0.659,0.071 0.219,0.023 0.22,0.023 0.22,0.024 0.219,0.023 0.22,0.023 0.219,0.023 0.22,0.023 0.219,0.022 0.22,0.023 0.219,0.023 0.22,0.022 0.219,0.022 0.22,0.022 0.219,0.022 0.219,0.022 0.219,0.022 0.22,0.022 0.219,0.021 0.219,0.022 0.439,0.043 0.219,0.021 0.219,0.021 0.219,0.021 0.438,0.042 0.219,0.02 0.219,0.021 0.219,0.02 0.219,0.02 0.219,0.02 0.219,0.02 0.657,0.06 0.219,0.019 0.219,0.02 0.437,0.039 0.219,0.019 0.218,0.019 0.437,0.038 0.219,0.018 0.218,0.019 0.219,0.019 0.218,0.018 0.219,0.018 0.219,0.019 0.218,0.017 0.219,0.018 0.436,0.036 0.873,0.07 0.437,0.034 0.217,0.017 0.219,0.017 0.218,0.017 0.218,0.017 0.218,0.016 0.218,0.016 0.218,0.017 0.217,0.016 0.219,0.016 0.435,0.032 0.654,0.047 0.217,0.016 0.218,0.015 0.218,0.015 0.217,0.015 0.218,0.016 0.217,0.014 0.218,0.015 0.434,0.03 0.218,0.014 0.218,0.014 0.434,0.029 0.217,0.014 0.869,0.055 0.217,0.013 0.218,0.014 0.433,0.026 0.218,0.013 0.216,0.013 0.217,0.013 0.217,0.013 0.217,0.012 0.217,0.013 0.867,0.049 0.217,0.012 0.216,0.012 0.217,0.012 0.217,0.011 0.216,0.012 0.216,0.012 0.217,0.011 0.433,0.023 0.866,0.043 0.216,0.011 0.216,0.01 0.433,0.021 0.216,0.01 0.216,0.01 0.216,0.01 0.216,0.01 0.216,0.01 0.216,0.01 0.648,0.028 0.216,0.009 0.216,0.009 0.647,0.027 0.216,0.009 0.216,0.008 0.215,0.009 0.216,0.008 0.216,0.009 0.215,0.008 0.216,0.008 0.431,0.016 0.215,0.008 0.216,0.008 0.216,0.007 0.215,0.008 0.216,0.007 0.215,0.007 0.43,0.015 0.216,0.006 0.215,0.007 0.215,0.007 0.431,0.013 0.215,0.007 0.216,0.006 0.215,0.006 0.215,0.006 0.215,0.006 0.215,0.006 0.215,0.006 0.215,0.006 0.215,0.005 0.215,0.006 0.215,0.005 0.645,0.016 0.215,0.005 0.215,0.005 0.43,0.009 0.215,0.005 0.214,0.004 0.43,0.009 0.215,0.004 0.215,0.004 0.215,0.004 0.429,0.008 0.215,0.003 0.215,0.004 0.858,0.013 0.644,0.008 0.429,0.006 0.429,0.005 0.43,0.005 0.858,0.007 0.215,0.002 0.858,0.006 0.429,0.002 0.214,10e-4 h 0.215 l 0.214,0.001 0.215,0.001 0.214,0.001 h 0.215 0.214 l 0.215,0.001 h 0.857 l 0.215,-0.001 h 0.214 0.215 l 0.214,-0.001 0.215,-0.001 0.214,-0.001 h 0.215 l 0.214,-10e-4 0.215,-0.001 0.214,-0.001 0.215,-0.002 0.214,-0.001 0.215,-0.002 0.214,-0.001 0.215,-0.002 0.215,-0.002 0.214,-0.002 0.215,-0.002 0.214,-0.001 0.215,-0.003 0.215,-0.002 0.214,-0.003 0.215,-0.002 0.214,-0.003 0.215,-0.003 0.215,-0.002 0.214,-0.003 0.215,-0.003 0.215,-0.003 0.214,-0.004 0.215,-0.003 0.214,-0.003 0.215,-0.004 0.215,-0.003 0.215,-0.004 0.214,-0.004 0.215,-0.004 0.215,-0.004 0.215,-0.004 0.215,-0.004 0.215,-0.005 0.214,-0.004 0.215,-0.005 0.215,-0.004 0.215,-0.005 0.215,-0.005 0.215,-0.005 0.215,-0.005 0.215,-0.005 0.215,-0.006 0.215,-0.005 0.215,-0.006 0.215,-0.005 0.215,-0.006 0.215,-0.006 0.215,-0.006 0.215,-0.006 0.216,-0.006 0.214,-0.006 0.216,-0.006 0.215,-0.007 0.215,-0.006 0.216,-0.007 0.215,-0.007 0.215,-0.007 0.216,-0.006 0.215,-0.008 0.215,-0.007 0.215,-0.007 0.216,-0.007 0.215,-0.008 0.216,-0.007 0.216,-0.008 0.215,-0.008 0.215,-0.008 0.216,-0.008 0.216,-0.008 0.215,-0.008 0.216,-0.009 0.216,-0.008 0.215,-0.009 0.216,-0.008 0.216,-0.009 0.216,-0.009 0.216,-0.009 0.216,-0.009 0.215,-0.009 0.216,-0.009 0.216,-0.009 0.216,-0.01 0.216,-0.009 0.216,-0.01 0.216,-0.01 0.216,-0.01 0.216,-0.01 0.217,-0.01 0.215,-0.01 0.217,-0.01 0.216,-0.011 0.216,-0.01 0.216,-0.011 0.217,-0.011 0.216,-0.011 0.217,-0.01 0.216,-0.011 0.216,-0.012 0.217,-0.011 0.217,-0.011 0.216,-0.012 0.216,-0.012 0.217,-0.011 0.217,-0.012 0.216,-0.012 0.217,-0.012 0.217,-0.012 0.216,-0.012 0.217,-0.013 0.217,-0.012 0.217,-0.013 0.217,-0.012 0.217,-0.013 0.217,-0.013 0.216,-0.013 0.218,-0.013 0.217,-0.013 0.216,-0.013 0.218,-0.014 0.217,-0.013 0.217,-0.014 0.217,-0.014 0.218,-0.013 0.217,-0.014 0.217,-0.014 0.217,-0.014 0.217,-0.015 0.218,-0.014 0.218,-0.014 0.217,-0.015 0.217,-0.015 0.218,-0.015 0.217,-0.014 0.218,-0.016 0.217,-0.015 0.218,-0.015 0.218,-0.015 0.217,-0.016 0.218,-0.016 0.218,-0.015 0.218,-0.016 0.218,-0.016 0.217,-0.016 0.219,-0.016 0.217,-0.016 0.218,-0.017 0.218,-0.016 0.218,-0.016 0.218,-0.017 0.218,-0.017 0.219,-0.017 0.217,-0.017 0.219,-0.017 0.218,-0.017 0.218,-0.017 0.218,-0.018 0.219,-0.017 0.218,-0.018 0.218,-0.018 0.219,-0.018 0.218,-0.018 0.219,-0.017 0.218,-0.019 0.219,-0.018 0.218,-0.018 0.219,-0.019 0.218,-0.019 0.219,-0.018 0.218,-0.019 0.219,-0.019 0.218,-0.019 0.219,-0.019 0.219,-0.019 0.219,-0.02 0.218,-0.02 0.219,-0.019 0.219,-0.02 0.219,-0.02 0.219,-0.02 0.219,-0.02 0.219,-0.02 0.219,-0.02 0.219,-0.02 0.219,-0.021 0.219,-0.02 0.219,-0.021 0.219,-0.021 0.219,-0.021 0.219,-0.021 0.219,-0.021 0.219,-0.022 0.22,-0.021 0.219,-0.022 0.219,-0.021 0.22,-0.022 0.219,-0.022 0.219,-0.022 0.219,-0.022 0.22,-0.022 0.219,-0.022 0.22,-0.022 0.219,-0.023 0.22,-0.023 0.219,-0.022 0.22,-0.023 0.219,-0.023 0.22,-0.023 0.219,-0.023 0.22,-0.024 0.22,-0.023 0.219,-0.023 0.22,-0.024 0.219,-0.024 0.22,-0.023 0.22,-0.024 0.219,-0.024 0.22,-0.025 0.22,-0.024 0.22,-0.024 0.219,-0.025 0.22,-0.024 0.22,-0.025 0.22,-0.025 0.22,-0.025 0.22,-0.025 0.22,-0.025 0.22,-0.026 0.219,-0.025 0.221,-0.025 0.219,-0.026 0.22,-0.026 0.22,-0.026 0.22,-0.026 0.22,-0.026 0.221,-0.026 0.219,-0.026 0.22,-0.026 0.221,-0.027 0.22,-0.026 0.22,-0.027 0.22,-0.027 0.22,-0.027 0.22,-0.027 0.22,-0.027 0.22,-0.027 0.22,-0.028 0.22,-0.027 0.221,-0.028 0.22,-0.028 0.22,-0.027 0.221,-0.029 0.22,-0.028 0.22,-0.028 0.22,-0.028 0.22,-0.029 0.221,-0.028 0.22,-0.029 0.22,-0.029 0.22,-0.028 0.221,-0.029 0.22,-0.03 0.22,-0.028 0.22,-0.03 0.221,-0.029 0.22,-0.03 0.221,-0.03 0.22,-0.029 0.22,-0.03 0.221,-0.03 0.22,-0.03 0.221,-0.03 0.22,-0.031 0.22,-0.03 0.221,-0.03 0.22,-0.031 0.22,-0.031 0.22,-0.031 0.221,-0.031 0.22,-0.031 0.221,-0.031 0.22,-0.031 0.221,-0.032 0.22,-0.031 0.22,-0.032 0.221,-0.032 0.22,-0.032 0.22,-0.032 0.221,-0.032 0.22,-0.032 0.221,-0.032 0.22,-0.033 0.221,-0.032 0.22,-0.033 0.22,-0.032 0.221,-0.034 0.22,-0.033 0.22,-0.033 0.221,-0.033 0.22,-0.033 0.221,-0.033 0.22,-0.034 0.221,-0.034 0.22,-0.033 0.22,-0.034 0.22,-0.035 0.221,-0.034 0.22,-0.034 0.22,-0.034 0.221,-0.035 0.22,-0.034 0.22,-0.034 0.221,-0.035 0.22,-0.035 0.221,-0.035 0.22,-0.035 0.22,-0.036 0.221,-0.035 0.22,-0.036 0.22,-0.035 0.22,-0.035 0.221,-0.036 0.22,-0.036 0.22,-0.036 0.22,-0.037 0.22,-0.035 0.221,-0.037 0.22,-0.036 0.22,-0.037 0.221,-0.036 0.22,-0.037 0.22,-0.037 0.22,-0.037 0.22,-0.037 0.22,-0.038 0.221,-0.037 0.22,-0.037 0.22,-0.038 0.22,-0.037 0.22,-0.038 0.22,-0.038 0.22,-0.038 0.22,-0.038 0.22,-0.038 0.22,-0.039 0.221,-0.038 0.219,-0.039 0.22,-0.038 0.221,-0.039 0.219,-0.039 0.22,-0.039"
       style="fill:none;stroke:currentColor;stroke-width:2;stroke-linecap:butt;stroke-linejoin:miter;stroke-miterlimit:10;stroke-dasharray:none;stroke-opacity:1"
       id="path835"
       inkscape:connector-curvature="0" /><path
       d="m 77.4076,188.802 0.2201,-0.039 0.2197,-0.039 0.2202,-0.039 0.2201,-0.038 0.2197,-0.039 0.2202,-0.038 0.2201,-0.039 0.2202,-0.038 0.2197,-0.038 0.2201,-0.038 0.2202,-0.038 0.2201,-0.038 0.2202,-0.037 0.2201,-0.038 0.2202,-0.037 0.2202,-0.037 0.2201,-0.038 0.2202,-0.037 0.2201,-0.037 0.2202,-0.037 0.2201,-0.037 0.2202,-0.036 0.2202,-0.037 0.2201,-0.036 0.2206,-0.037 0.2202,-0.035 0.2202,-0.037 0.2201,-0.036 0.2202,-0.036 0.2206,-0.036 0.2202,-0.035 0.2201,-0.035 0.2202,-0.036 0.2206,-0.035 0.2202,-0.036 0.2201,-0.035 0.2207,-0.035 0.2201,-0.035 0.2206,-0.035 0.2202,-0.034 0.2202,-0.035 0.2206,-0.034 0.2201,-0.034 0.2207,-0.035 0.2201,-0.034 0.2202,-0.034 0.2206,-0.034 0.2202,-0.033 0.2206,-0.034 0.2202,-0.034 0.2206,-0.033 0.2202,-0.033 0.2206,-0.033 0.2201,-0.033 0.2207,-0.033 0.2201,-0.034 0.2207,-0.032 0.2201,-0.033 0.2206,-0.032 0.2202,-0.033 0.2206,-0.032 0.2202,-0.032 0.2206,-0.032 0.2202,-0.032 0.2206,-0.032 0.2202,-0.032 0.2206,-0.032 0.2202,-0.031 0.2206,-0.032 0.2201,-0.031 0.2207,-0.031 0.2201,-0.031 0.2207,-0.031 0.2201,-0.031 0.2206,-0.031 0.2202,-0.031 0.2206,-0.03 0.2202,-0.031 0.2201,-0.03 0.2207,-0.03 0.2201,-0.03 0.2207,-0.03 0.2201,-0.03 0.2202,-0.03 0.2206,-0.029 0.2202,-0.03 0.2206,-0.029 0.2202,-0.03 0.2201,-0.028 0.2202,-0.03 0.2206,-0.029 0.2202,-0.028 0.2201,-0.029 0.2202,-0.029 0.2206,-0.028 0.2202,-0.029 0.2201,-0.028 0.2202,-0.028 0.2201,-0.028 0.2202,-0.029 0.2206,-0.027 0.2202,-0.028 0.2206,-0.028 0.22,-0.027 0.22,-0.028 0.22,-0.027 0.22,-0.027 0.22,-0.027 0.22,-0.027 0.22,-0.027 0.22,-0.027 0.22,-0.026 0.221,-0.027 0.22,-0.026 0.219,-0.026 0.221,-0.026 0.22,-0.026 0.22,-0.026 0.22,-0.026 0.22,-0.026 0.219,-0.026 0.221,-0.025 0.219,-0.025 0.22,-0.026 0.22,-0.025 0.22,-0.025 0.22,-0.025 0.22,-0.025 0.22,-0.025 0.22,-0.024 0.219,-0.025 0.22,-0.024 0.22,-0.024 0.22,-0.025 0.219,-0.024 0.22,-0.024 0.22,-0.023 0.219,-0.024 0.22,-0.024 0.219,-0.023 0.22,-0.023 0.22,-0.024 0.219,-0.023 0.22,-0.023 0.219,-0.023 0.22,-0.023 0.219,-0.022 0.22,-0.023 0.219,-0.023 0.22,-0.022 0.219,-0.022 0.22,-0.022 0.219,-0.023 0.219,-0.021 0.219,-0.022 0.22,-0.022 0.219,-0.021 0.219,-0.022 0.22,-0.021 0.219,-0.022 0.219,-0.021 0.219,-0.021 0.219,-0.021 0.219,-0.021 0.219,-0.021 0.219,-0.02 0.219,-0.021 0.219,-0.02 0.219,-0.02 0.219,-0.02 0.219,-0.02 0.219,-0.02 0.219,-0.02 0.219,-0.02 0.219,-0.019 0.219,-0.02 0.218,-0.02 0.219,-0.019 0.219,-0.019 0.218,-0.019 0.219,-0.019 0.218,-0.019 0.219,-0.018 0.218,-0.019 0.219,-0.019 0.218,-0.018 0.219,-0.018 0.219,-0.019 0.218,-0.018 0.219,-0.017 0.218,-0.018 0.218,-0.018 0.218,-0.018 0.219,-0.017 0.218,-0.018 0.218,-0.017 0.218,-0.017 0.219,-0.017 0.217,-0.017 0.219,-0.017 0.218,-0.017 0.218,-0.017 0.218,-0.016 0.218,-0.016 0.218,-0.017 0.217,-0.016 0.219,-0.016 0.217,-0.016 0.218,-0.016 0.218,-0.016 0.218,-0.015 0.218,-0.016 0.217,-0.016 0.218,-0.015 0.218,-0.015 0.217,-0.015 0.218,-0.016 0.217,-0.014 0.218,-0.015 0.217,-0.015 0.217,-0.015 0.218,-0.014 0.218,-0.014 0.217,-0.015 0.217,-0.014 0.217,-0.014 0.217,-0.014 0.218,-0.013 0.217,-0.014 0.217,-0.014 0.217,-0.013 0.218,-0.014 0.216,-0.013 0.217,-0.013 0.218,-0.013 0.216,-0.013 0.217,-0.013 0.217,-0.013 0.217,-0.012 0.217,-0.013 0.217,-0.012 0.217,-0.013 0.216,-0.012 0.217,-0.012 0.217,-0.012 0.216,-0.012 0.217,-0.012 0.217,-0.012 0.216,-0.011 0.216,-0.012 0.217,-0.011 0.217,-0.011 0.216,-0.012 0.216,-0.011 0.217,-0.01 0.216,-0.011 0.217,-0.011 0.216,-0.011 0.216,-0.01 0.216,-0.011 0.217,-0.01 0.216,-0.01 0.216,-0.011 0.216,-0.009 0.216,-0.01 0.216,-0.01 0.216,-0.01 0.216,-0.009 0.216,-0.01 0.216,-0.009 0.216,-0.009 0.216,-0.01 0.215,-0.008 0.216,-0.009 0.216,-0.009 0.216,-0.009 0.216,-0.008 0.215,-0.009 0.216,-0.008 0.216,-0.009 0.215,-0.008 0.216,-0.008 0.216,-0.008 0.215,-0.008 0.215,-0.008 0.216,-0.008 0.216,-0.007 0.215,-0.008 0.216,-0.007 0.215,-0.007 0.215,-0.008 0.215,-0.007 0.216,-0.006 0.215,-0.007 0.215,-0.007 0.216,-0.007 0.215,-0.006 0.215,-0.007 0.216,-0.006 0.215,-0.006 0.215,-0.006 0.215,-0.006 0.215,-0.006 0.215,-0.006 0.215,-0.006 0.215,-0.005 0.215,-0.006 0.215,-0.005 0.215,-0.006 0.215,-0.005 0.215,-0.005 0.215,-0.005 0.215,-0.005 0.215,-0.005 0.215,-0.004 0.215,-0.005 0.214,-0.004 0.215,-0.005 0.215,-0.004 0.215,-0.004 0.215,-0.004 0.215,-0.004 0.214,-0.004 0.215,-0.004 0.215,-0.003 0.215,-0.004 0.214,-0.003 0.215,-0.003 0.214,-0.004 0.215,-0.003 0.215,-0.003 0.214,-0.003 0.215,-0.002 0.215,-0.003 0.214,-0.003 0.215,-0.002 0.214,-0.003 0.215,-0.002 0.215,-0.003 0.214,-0.001 0.215,-0.002 0.214,-0.002 0.215,-0.002 0.215,-0.002 0.214,-0.001 0.215,-0.002 0.214,-0.001 0.215,-0.002 0.214,-0.001 0.215,-10e-4 0.214,-0.001 h 0.215 l 0.214,-0.001 0.215,-0.001 0.214,-0.001 h 0.215 0.214 l 0.215,-0.001 h 0.857 l 0.215,0.001 h 0.214 0.215 l 0.214,0.001 0.215,0.001 0.214,0.001 h 0.215 l 0.214,0.001 0.429,0.002 0.858,0.006 1.073,0.009 0.859,0.01 0.858,0.011 0.215,0.003 0.429,0.007 0.429,0.006 0.215,0.004 0.215,0.003 0.429,0.008 0.215,0.004 0.215,0.004 0.215,0.004 0.43,0.009 0.214,0.004 0.215,0.005 0.43,0.009 0.215,0.005 0.215,0.005 0.645,0.016 0.215,0.005 0.215,0.006 0.215,0.005 0.215,0.006 0.215,0.006 0.215,0.006 0.215,0.006 0.216,0.006 0.214,0.006 0.216,0.006 0.215,0.007 0.431,0.013 0.215,0.007 0.215,0.007 0.216,0.006 0.43,0.015 0.215,0.007 0.216,0.007 0.215,0.008 0.216,0.007 0.216,0.008 0.215,0.008 0.431,0.016 0.216,0.008 0.215,0.008 0.216,0.009 0.216,0.008 0.215,0.009 0.216,0.008 0.216,0.009 0.648,0.026 0.215,0.01 0.216,0.009 0.648,0.028 0.216,0.01 0.216,0.01 0.216,0.01 0.216,0.009 0.217,0.011 0.215,0.01 0.433,0.021 0.216,0.01 0.216,0.011 0.866,0.043 0.433,0.023 0.217,0.011 0.216,0.012 0.216,0.011 0.217,0.012 0.217,0.012 0.216,0.012 0.217,0.012 0.867,0.049 0.217,0.013 0.217,0.012 0.217,0.013 0.217,0.013 0.216,0.013 0.218,0.013 0.433,0.026 0.218,0.014 0.217,0.013 0.869,0.055 0.217,0.014 0.434,0.029 0.218,0.014 0.218,0.014 0.434,0.03 0.218,0.015 0.217,0.014 0.218,0.016 0.217,0.015 0.218,0.015 0.218,0.015 0.217,0.016 0.654,0.047 0.435,0.032 0.219,0.016 0.217,0.016 0.218,0.017 0.218,0.016 0.218,0.016 0.218,0.017 0.218,0.017 0.219,0.017 0.217,0.017 0.437,0.034 0.873,0.07 0.437,0.036 0.218,0.017 0.219,0.018 0.218,0.019 0.219,0.018 0.218,0.018 0.219,0.019 0.218,0.019 0.219,0.018 0.437,0.038 0.218,0.019 0.219,0.019 0.438,0.039 0.218,0.02 0.219,0.019 0.657,0.06 0.219,0.02 0.219,0.02 0.219,0.02 0.219,0.02 0.219,0.021 0.219,0.02 0.438,0.042 0.219,0.021 0.219,0.021 0.219,0.021 0.439,0.043 0.219,0.022 0.219,0.021 0.22,0.022 0.219,0.022 0.219,0.021 0.219,0.023 0.22,0.022 0.219,0.022 0.22,0.022 0.219,0.023 0.22,0.023 0.219,0.022 0.22,0.023 0.219,0.023 0.22,0.023 0.219,0.023 0.22,0.024 0.22,0.023 0.219,0.023 0.659,0.071 0.659,0.073 0.22,0.024 0.22,0.024 0.439,0.049 0.22,0.025 0.44,0.05 0.22,0.025 0.22,0.025 0.22,0.026 0.219,0.025 0.221,0.025 0.219,0.026 0.22,0.026 0.22,0.026 0.661,0.078 0.219,0.026 0.661,0.079 0.22,0.027 0.22,0.027 0.66,0.081 0.66,0.082 0.441,0.056 0.22,0.027 0.221,0.029 0.22,0.028 0.66,0.085 0.221,0.028 0.66,0.086 0.221,0.029 0.22,0.03 0.22,0.028 0.22,0.03 0.221,0.029 0.22,0.03 0.221,0.029 0.44,0.06 0.221,0.03 0.22,0.03 0.221,0.03 0.22,0.03 0.22,0.031 0.221,0.03 0.22,0.031 0.22,0.031 0.22,0.031 0.221,0.031 0.22,0.031 0.221,0.031 0.22,0.031 0.221,0.032 0.22,0.031 0.22,0.032 0.221,0.032 0.22,0.032 0.22,0.032 0.221,0.032 0.22,0.032 0.221,0.032 0.22,0.033 0.221,0.032 0.22,0.033 0.22,0.032 0.221,0.034 0.22,0.033 0.22,0.033 0.221,0.033 0.22,0.033 0.221,0.033 0.22,0.034 0.221,0.034 0.22,0.033 0.22,0.034 0.441,0.068 0.22,0.035 0.22,0.034 0.221,0.034 0.44,0.069 0.221,0.035 0.22,0.035 0.221,0.035 0.22,0.035 0.22,0.036 0.221,0.035 0.66,0.106 0.221,0.036 0.44,0.072 0.22,0.037 0.22,0.035 0.221,0.037 0.22,0.036 0.22,0.037 0.221,0.036 0.66,0.111 1.101,0.187 0.66,0.113 0.22,0.038 0.22,0.038 0.44,0.077 0.221,0.038 0.219,0.039 0.441,0.077 0.219,0.039 0.22,0.039"
       style="fill:none;stroke:currentColor;stroke-width:2;stroke-linecap:butt;stroke-linejoin:miter;stroke-miterlimit:10;stroke-dasharray:none;stroke-opacity:1"
       id="path837"
       inkscape:connector-curvature="0" /><path
       d="m 104.882,88.063 0.122,0.086 0.122,0.0855 0.122,0.0855 0.245,0.1701 0.245,0.1701 0.124,0.0845 0.123,0.0841 0.123,0.0846 0.124,0.0836 0.124,0.0841 0.248,0.1672 0.125,0.0832 0.249,0.1663 0.251,0.1653 0.125,0.0823 0.125,0.0826 0.126,0.0818 0.378,0.2452 0.127,0.0812 0.126,0.0813 0.254,0.1616 0.255,0.1606 0.127,0.0803 0.128,0.0798 0.128,0.0799 0.128,0.0798 0.128,0.0794 0.128,0.0789 0.129,0.0789 0.129,0.0789 0.387,0.2353 0.129,0.0779 0.13,0.078 0.13,0.0774 0.129,0.0775 0.131,0.077 0.13,0.077 0.13,0.0771 0.131,0.0765 0.13,0.0765 0.132,0.0761 0.131,0.0761 0.262,0.1511 0.132,0.0751 0.131,0.0756 0.132,0.0747 0.133,0.0746 0.131,0.0747 0.133,0.0742 0.132,0.0741 0.133,0.0742 0.133,0.0737 0.133,0.0732 0.266,0.1465 0.134,0.0727 0.133,0.0728 0.134,0.0723 0.134,0.0723 0.268,0.1436 0.269,0.1427 0.134,0.0713 0.135,0.0709 0.135,0.0704 0.27,0.1407 0.271,0.1399 0.272,0.1389 0.272,0.1379 0.272,0.137 0.273,0.1361 0.137,0.068 0.136,0.0671 0.137,0.0676 0.138,0.0671 0.137,0.0666 0.275,0.1332 0.137,0.0662 0.414,0.197 0.139,0.0652 0.138,0.0652 0.138,0.0647 0.138,0.0642 0.278,0.1285 0.139,0.0638 0.139,0.0633 0.139,0.0638 0.139,0.0628 0.14,0.0629 0.14,0.0628 0.139,0.0624 0.14,0.0623 0.14,0.0619 0.139,0.0614 0.141,0.0615 0.14,0.0614 0.14,0.0609 0.14,0.0605 0.141,0.0605 0.14,0.0604 0.141,0.06 0.141,0.0596 0.141,0.0595 0.141,0.0595 0.141,0.0591 0.283,0.1171 0.141,0.0586 0.142,0.0581 0.283,0.1153 0.142,0.0572 0.142,0.0571 0.285,0.1134 0.284,0.1125 0.143,0.0557 0.142,0.0558 0.285,0.1105 0.143,0.0548 0.143,0.0543 0.286,0.1087 0.143,0.0539 0.287,0.1067 0.143,0.0534 0.144,0.0529 0.287,0.1049 0.144,0.052 0.144,0.052 0.288,0.103 0.143,0.051 0.145,0.051 0.144,0.0505 0.144,0.0501 0.289,0.1002 0.144,0.0496 0.145,0.0491 0.145,0.0492 0.289,0.0973 0.29,0.0964 0.29,0.0954 0.145,0.0472 0.145,0.0468 0.146,0.0472 0.145,0.046 0.145,0.047 0.291,0.091 0.291,0.091 0.146,0.045 0.146,0.045 0.146,0.044 0.145,0.044 0.292,0.088 0.146,0.043 0.147,0.043 0.146,0.043 0.146,0.043 0.146,0.042 0.146,0.043 0.147,0.042 0.146,0.041 0.439,0.123 0.147,0.041 0.147,0.04 0.146,0.04 0.147,0.04 0.147,0.04 0.147,0.039 0.146,0.039 0.147,0.039 0.441,0.115 0.147,0.038 0.294,0.074 0.147,0.037 0.147,0.037 0.148,0.036 0.147,0.036 0.295,0.072 0.147,0.035 0.295,0.07 0.295,0.069 0.294,0.068 0.148,0.034 0.148,0.033 0.147,0.034 0.148,0.032 0.147,0.033 0.148,0.032 0.148,0.032 0.295,0.063 0.148,0.031 0.148,0.032 0.295,0.061 0.148,0.03 0.296,0.06 0.296,0.058 0.148,0.029 0.148,0.029 0.296,0.057 0.148,0.028 0.296,0.054 0.148,0.028 0.148,0.027 0.148,0.026 0.148,0.027 0.149,0.026 0.147,0.026 0.149,0.025 0.148,0.025 0.148,0.026 0.148,0.024 0.148,0.025 0.149,0.024 0.148,0.024 0.148,0.024 0.148,0.024 0.297,0.046 0.148,0.023 0.149,0.022 0.148,0.023 0.148,0.021 0.148,0.022 0.148,0.022 0.149,0.021 0.296,0.042 0.297,0.04 0.297,0.04 0.297,0.039 0.148,0.019 0.149,0.018 0.296,0.037 0.149,0.018 0.296,0.035 0.446,0.051 0.148,0.016 0.297,0.032 0.297,0.031 0.148,0.015 0.148,0.015 0.149,0.015 0.149,0.014 0.148,0.014 0.297,0.028 0.148,0.013 0.149,0.013 0.296,0.026 0.149,0.012 0.149,0.012 0.148,0.012 0.445,0.034 0.149,0.011 0.445,0.031 0.148,0.01 0.149,0.01 0.148,0.009 0.297,0.018 0.148,0.008 0.149,0.009 0.149,0.008 0.148,0.008 0.148,0.008 0.149,0.007 0.148,0.007 0.149,0.007 0.148,0.006 0.297,0.013 0.149,0.005 0.296,0.012 0.149,0.004 0.148,0.006 0.149,0.004 0.148,0.005 0.149,0.003 0.148,0.005 0.445,0.01 0.297,0.005 0.148,0.003 0.298,0.003 0.445,0.005 0.148,0.001 0.297,0.001 h 0.297 l 0.148,-0.001 h 0.149 l 0.148,-0.001 0.149,-0.002 0.148,-0.001 0.148,-0.002 0.149,-0.001 0.149,-0.002 0.148,-0.003 0.148,-0.003 0.149,-0.002 0.148,-0.004 0.149,-0.003 0.148,-0.003 0.148,-0.005 0.149,-0.003 0.148,-0.005 0.149,-0.004 0.148,-0.006 0.149,-0.004 0.148,-0.006 0.148,-0.006 0.149,-0.005 0.149,-0.006 0.148,-0.007 0.148,-0.006 0.149,-0.007 0.148,-0.007 0.149,-0.007 0.148,-0.008 0.148,-0.008 0.149,-0.008 0.149,-0.009 0.148,-0.008 0.148,-0.009 0.149,-0.009 0.148,-0.009 0.149,-0.01 0.148,-0.01 0.148,-0.01 0.149,-0.011 0.148,-0.01 0.149,-0.011 0.148,-0.011 0.149,-0.012 0.148,-0.011 0.148,-0.012 0.149,-0.012 0.149,-0.012 0.148,-0.013 0.148,-0.013 0.149,-0.013 0.148,-0.013 0.149,-0.014 0.148,-0.014 0.148,-0.014 0.149,-0.014 0.149,-0.015 0.148,-0.015 0.148,-0.015 0.149,-0.015 0.148,-0.016 0.148,-0.016 0.149,-0.016 0.149,-0.016 0.148,-0.017 0.148,-0.017 0.149,-0.017 0.148,-0.018 0.148,-0.017 0.149,-0.018 0.148,-0.019 0.148,-0.018 0.149,-0.018 0.148,-0.019 0.149,-0.02 0.148,-0.019 0.148,-0.02 0.149,-0.02 0.148,-0.02 0.149,-0.02 0.148,-0.021 0.148,-0.021 0.149,-0.021 0.148,-0.022 0.148,-0.022 0.148,-0.021 0.148,-0.023 0.149,-0.022 0.148,-0.023 0.149,-0.023 0.148,-0.023 0.148,-0.024 0.148,-0.024 0.148,-0.024 0.149,-0.024 0.148,-0.025 0.148,-0.024 0.148,-0.026 0.148,-0.025 0.149,-0.025 0.147,-0.026 0.149,-0.026 0.148,-0.027 0.148,-0.026 0.148,-0.027 0.148,-0.028 0.148,-0.027 0.148,-0.027 0.148,-0.028 0.148,-0.029 0.148,-0.028 0.148,-0.029 0.148,-0.029 0.148,-0.029 0.148,-0.029 0.148,-0.03 0.148,-0.03 0.148,-0.03 0.148,-0.031 0.147,-0.03 0.148,-0.032 0.148,-0.031 0.148,-0.031 0.147,-0.032 0.148,-0.032 0.148,-0.032 0.147,-0.033 0.148,-0.032 0.147,-0.034 0.148,-0.033 0.148,-0.034 0.147,-0.034 0.147,-0.034 0.148,-0.034 0.147,-0.035 0.148,-0.035 0.147,-0.035 0.147,-0.035 0.148,-0.036 0.147,-0.036 0.147,-0.036 0.148,-0.036 0.147,-0.037 0.147,-0.037 0.147,-0.037 0.147,-0.037 0.147,-0.038 0.147,-0.039 0.147,-0.038 0.147,-0.038 0.147,-0.039 0.146,-0.039 0.147,-0.039 0.147,-0.04 0.147,-0.04 0.146,-0.04 0.147,-0.04 0.147,-0.041 0.146,-0.041 0.146,-0.041 0.147,-0.041 0.146,-0.041 0.147,-0.042 0.146,-0.043 0.146,-0.042 0.146,-0.043 0.146,-0.043 0.147,-0.043 0.146,-0.043 0.146,-0.044 0.146,-0.044 0.145,-0.044 0.146,-0.044 0.146,-0.045 0.146,-0.045 0.145,-0.045 0.146,-0.046 0.145,-0.046 0.146,-0.045 0.145,-0.047 0.145,-0.046 0.146,-0.0472 0.145,-0.0468 0.145,-0.0472 0.145,-0.0477 0.145,-0.0477 0.145,-0.0482 0.145,-0.0482 0.145,-0.0487 0.144,-0.0486 0.145,-0.0492 0.145,-0.0491 0.144,-0.0496 0.144,-0.0501 0.145,-0.0501 0.144,-0.0501 0.144,-0.0505 0.145,-0.051 0.143,-0.051 0.144,-0.0515 0.145,-0.0515 0.143,-0.052 0.144,-0.052 0.144,-0.0524 0.143,-0.0525 0.144,-0.0529 0.143,-0.0534 0.143,-0.0533 0.144,-0.0534 0.143,-0.0539 0.143,-0.0543 0.143,-0.0544 0.143,-0.0543 0.143,-0.0548 0.142,-0.0553 0.143,-0.0552 0.142,-0.0558 0.143,-0.0557 0.142,-0.0563 0.142,-0.0562 0.143,-0.0567 0.142,-0.0567 0.142,-0.0571 0.142,-0.0572 0.142,-0.0576 0.141,-0.0577 0.142,-0.0581 0.141,-0.0586 0.142,-0.0585 0.141,-0.0586 0.141,-0.0591 0.141,-0.0595 0.141,-0.0595 0.141,-0.0596 0.141,-0.06 0.14,-0.0604 0.141,-0.0605 0.14,-0.0605 0.14,-0.0609 0.14,-0.0614 0.141,-0.0615 0.139,-0.0614 0.14,-0.0619 0.14,-0.0623 0.139,-0.0624 0.14,-0.0628 0.14,-0.0629 0.139,-0.0628 0.139,-0.0638 0.139,-0.0633 0.139,-0.0638 0.139,-0.0642 0.139,-0.0643 0.138,-0.0642 0.138,-0.0647 0.138,-0.0652 0.139,-0.0652 0.138,-0.0657 0.138,-0.0657 0.138,-0.0656 0.137,-0.0662 0.138,-0.0666 0.137,-0.0666 0.137,-0.0666 0.138,-0.0671 0.137,-0.0676 0.136,-0.0671 0.137,-0.068 0.137,-0.068 0.136,-0.0681 0.136,-0.0685 0.136,-0.0685 0.136,-0.0689 0.136,-0.069 0.136,-0.0695 0.136,-0.0694 0.135,-0.0699 0.136,-0.07 0.135,-0.0703 0.135,-0.0704 0.135,-0.0704 0.135,-0.0709 0.134,-0.0713 0.135,-0.0714 0.134,-0.0713 0.134,-0.0718 0.134,-0.0718 0.134,-0.0723 0.134,-0.0723 0.133,-0.0728 0.134,-0.0727 0.133,-0.0732 0.133,-0.0733 0.133,-0.0732 0.133,-0.0737 0.133,-0.0742 0.132,-0.0741 0.133,-0.0742 0.131,-0.0747 0.133,-0.0746 0.132,-0.0747 0.131,-0.0756 0.132,-0.0751 0.131,-0.0756 0.131,-0.0755 0.131,-0.0761 0.132,-0.0761 0.13,-0.0765 0.131,-0.0765 0.13,-0.0771 0.13,-0.077 0.131,-0.077 0.13,-0.0775 0.129,-0.0774 0.13,-0.078 0.129,-0.0779 0.129,-0.0785 0.129,-0.0784 0.129,-0.0784 0.129,-0.0789 0.129,-0.0789 0.128,-0.0789 0.128,-0.0794 0.128,-0.0798 0.128,-0.0799 0.128,-0.0798 0.127,-0.0803 0.128,-0.0803 0.127,-0.0803 0.127,-0.0808 0.127,-0.0808 0.126,-0.0813 0.127,-0.0812 0.126,-0.0818 0.126,-0.0817 0.126,-0.0817 0.126,-0.0818 0.125,-0.0826 0.126,-0.0823 0.125,-0.0826 0.125,-0.0827 0.125,-0.0832 0.124,-0.0831 0.125,-0.0832 0.124,-0.0836 0.124,-0.0836 0.124,-0.0841 0.124,-0.0836 0.123,-0.0846 0.123,-0.0841 0.124,-0.0845 0.122,-0.0851 0.123,-0.085 0.123,-0.0851 0.122,-0.085 0.122,-0.0855 0.122,-0.0855 0.122,-0.086"
       style="fill:none;stroke:currentColor;stroke-width:2;stroke-linecap:butt;stroke-linejoin:miter;stroke-miterlimit:10;stroke-dasharray:none;stroke-opacity:1"
       id="path839"
       inkscape:connector-curvature="0" /><path
       d="m 104.882,224.126 0.122,-0.086 0.122,-0.086 0.122,-0.085 0.122,-0.085 0.123,-0.085 0.123,-0.085 0.122,-0.085 0.124,-0.085 0.123,-0.084 0.123,-0.084 0.124,-0.084 0.124,-0.084 0.124,-0.084 0.124,-0.083 0.125,-0.084 0.124,-0.083 0.125,-0.083 0.125,-0.083 0.126,-0.082 0.125,-0.082 0.125,-0.083 0.126,-0.082 0.126,-0.082 0.126,-0.081 0.126,-0.082 0.127,-0.081 0.126,-0.082 0.127,-0.08 0.127,-0.081 0.127,-0.08 0.128,-0.081 0.127,-0.08 0.128,-0.08 0.128,-0.08 0.128,-0.08 0.128,-0.079 0.128,-0.079 0.129,-0.079 0.129,-0.079 0.129,-0.078 0.129,-0.078 0.129,-0.079 0.129,-0.078 0.13,-0.078 0.13,-0.077 0.129,-0.078 0.131,-0.077 0.13,-0.077 0.13,-0.077 0.131,-0.076 0.13,-0.077 0.132,-0.076 0.131,-0.076 0.131,-0.076 0.131,-0.075 0.132,-0.075 0.131,-0.076 0.132,-0.075 0.133,-0.074 0.131,-0.075 0.133,-0.074 0.132,-0.074 0.133,-0.074 0.133,-0.074 0.133,-0.073 0.133,-0.073 0.133,-0.074 0.134,-0.072 0.133,-0.073 0.134,-0.073 0.134,-0.072 0.134,-0.072 0.134,-0.071 0.134,-0.072 0.135,-0.071 0.134,-0.071 0.135,-0.071 0.135,-0.071 0.135,-0.07 0.135,-0.07 0.136,-0.07 0.135,-0.07 0.136,-0.07 0.136,-0.069 0.136,-0.069 0.136,-0.069 0.136,-0.069 0.136,-0.068 0.136,-0.068 0.137,-0.068 0.137,-0.068 0.136,-0.067 0.137,-0.068 0.138,-0.067 0.137,-0.067 0.137,-0.066 0.138,-0.067 0.137,-0.066 0.138,-0.066 0.138,-0.065 0.138,-0.066 0.139,-0.065 0.138,-0.065 0.138,-0.065 0.138,-0.064 0.139,-0.065 0.139,-0.064 0.139,-0.064 0.139,-0.063 0.139,-0.064 0.139,-0.063 0.14,-0.062 0.14,-0.063 0.139,-0.063 0.14,-0.062 0.14,-0.062 0.139,-0.061 0.141,-0.062 0.14,-0.061 0.14,-0.061 0.14,-0.061 0.141,-0.06 0.14,-0.06 0.141,-0.06 0.141,-0.06 0.141,-0.06 0.141,-0.059 0.141,-0.059 0.141,-0.059 0.142,-0.058 0.141,-0.059 0.142,-0.058 0.141,-0.058 0.142,-0.057 0.142,-0.057 0.142,-0.058 0.142,-0.056 0.143,-0.057 0.142,-0.056 0.142,-0.056 0.143,-0.056 0.142,-0.056 0.143,-0.055 0.142,-0.055 0.143,-0.055 0.143,-0.055 0.143,-0.054 0.143,-0.054 0.143,-0.054 0.144,-0.053 0.143,-0.054 0.143,-0.053 0.144,-0.053 0.143,-0.053 0.144,-0.052 0.144,-0.052 0.144,-0.052 0.144,-0.051 0.144,-0.052 0.143,-0.051 0.145,-0.051 0.144,-0.051 0.144,-0.05 0.145,-0.05 0.144,-0.05 0.144,-0.049 0.145,-0.05 0.145,-0.049 0.144,-0.048 0.145,-0.049 0.145,-0.048 0.145,-0.048 0.145,-0.048 0.145,-0.048 0.145,-0.047 0.145,-0.047 0.146,-0.047 0.145,-0.046 0.145,-0.047 0.146,-0.046 0.145,-0.045 0.146,-0.046 0.145,-0.045 0.146,-0.045 0.146,-0.045 0.146,-0.044 0.145,-0.044 0.146,-0.044 0.146,-0.044 0.146,-0.043 0.147,-0.043 0.146,-0.043 0.146,-0.043 0.146,-0.043 0.146,-0.042 0.147,-0.042 0.146,-0.041 0.147,-0.041 0.146,-0.041 0.146,-0.041 0.147,-0.041 0.147,-0.04 0.146,-0.04 0.147,-0.04 0.147,-0.04 0.147,-0.039 0.146,-0.039 0.147,-0.039 0.147,-0.038 0.147,-0.039 0.147,-0.038 0.147,-0.038 0.147,-0.037 0.147,-0.037 0.147,-0.037 0.147,-0.037 0.148,-0.036 0.147,-0.036 0.147,-0.036 0.148,-0.036 0.147,-0.035 0.147,-0.035 0.148,-0.035 0.147,-0.035 0.148,-0.034 0.147,-0.034 0.147,-0.034 0.148,-0.034 0.148,-0.033 0.147,-0.034 0.148,-0.032 0.147,-0.033 0.148,-0.032 0.148,-0.032 0.147,-0.032 0.148,-0.031 0.148,-0.031 0.148,-0.032 0.147,-0.03 0.148,-0.031 0.148,-0.03 0.148,-0.03 0.148,-0.03 0.148,-0.029 0.148,-0.029 0.148,-0.029 0.148,-0.029 0.148,-0.028 0.148,-0.029 0.148,-0.028 0.148,-0.027 0.148,-0.027 0.148,-0.028 0.148,-0.027 0.148,-0.026 0.148,-0.027 0.149,-0.026 0.147,-0.026 0.149,-0.025 0.148,-0.025 0.148,-0.026 0.148,-0.024 0.148,-0.025 0.149,-0.024 0.148,-0.024 0.148,-0.024 0.148,-0.024 0.148,-0.023 0.149,-0.023 0.148,-0.023 0.149,-0.022 0.148,-0.023 0.148,-0.021 0.148,-0.022 0.148,-0.022 0.149,-0.021 0.148,-0.021 0.148,-0.021 0.149,-0.02 0.148,-0.02 0.149,-0.02 0.148,-0.02 0.148,-0.019 0.149,-0.02 0.148,-0.019 0.149,-0.018 0.148,-0.018 0.148,-0.019 0.149,-0.018 0.148,-0.017 0.148,-0.018 0.149,-0.017 0.148,-0.017 0.149,-0.017 0.148,-0.016 0.149,-0.016 0.148,-0.016 0.148,-0.016 0.149,-0.015 0.148,-0.015 0.148,-0.015 0.149,-0.015 0.149,-0.014 0.148,-0.014 0.148,-0.014 0.149,-0.014 0.148,-0.013 0.149,-0.013 0.148,-0.013 0.148,-0.013 0.149,-0.012 0.149,-0.012 0.148,-0.012 0.148,-0.011 0.149,-0.012 0.148,-0.011 0.149,-0.011 0.148,-0.01 0.149,-0.011 0.148,-0.01 0.148,-0.01 0.149,-0.01 0.148,-0.009 0.149,-0.009 0.148,-0.009 0.148,-0.008 0.149,-0.009 0.149,-0.008 0.148,-0.008 0.148,-0.008 0.149,-0.007 0.148,-0.007 0.149,-0.007 0.148,-0.006 0.148,-0.007 0.149,-0.006 0.149,-0.005 0.148,-0.006 0.148,-0.006 0.149,-0.004 0.148,-0.006 0.149,-0.004 0.148,-0.005 0.149,-0.003 0.148,-0.005 0.148,-0.003 0.149,-0.003 0.148,-0.004 0.149,-0.002 0.148,-0.003 0.148,-0.003 0.149,-0.002 0.149,-0.001 0.148,-0.002 0.148,-0.001 0.149,-0.002 0.148,-0.001 h 0.149 l 0.148,-0.001 h 0.297 l 0.297,0.001 0.148,0.001 0.445,0.005 0.298,0.003 0.148,0.003 0.297,0.005 0.445,0.01 0.148,0.005 0.149,0.003 0.148,0.005 0.149,0.004 0.148,0.006 0.149,0.004 0.296,0.012 0.149,0.005 0.297,0.013 0.148,0.006 0.149,0.007 0.148,0.007 0.149,0.007 0.148,0.008 0.148,0.008 0.149,0.008 0.149,0.009 0.148,0.008 0.297,0.018 0.148,0.009 0.149,0.01 0.148,0.01 0.445,0.031 0.149,0.011 0.445,0.034 0.148,0.012 0.149,0.012 0.149,0.012 0.296,0.026 0.149,0.013 0.148,0.013 0.297,0.028 0.148,0.014 0.149,0.014 0.149,0.015 0.148,0.015 0.148,0.015 0.297,0.031 0.297,0.032 0.149,0.016 0.445,0.051 0.296,0.035 0.149,0.018 0.296,0.037 0.149,0.018 0.148,0.019 0.297,0.039 0.297,0.04 0.297,0.04 0.296,0.042 0.149,0.021 0.148,0.022 0.148,0.022 0.148,0.021 0.148,0.023 0.149,0.022 0.148,0.023 0.297,0.046 0.148,0.024 0.148,0.024 0.148,0.024 0.149,0.024 0.148,0.025 0.148,0.024 0.148,0.026 0.148,0.025 0.149,0.025 0.147,0.026 0.149,0.026 0.148,0.027 0.148,0.026 0.148,0.027 0.148,0.028 0.296,0.054 0.148,0.028 0.296,0.057 0.148,0.029 0.148,0.029 0.296,0.058 0.296,0.06 0.148,0.03 0.295,0.061 0.148,0.032 0.148,0.031 0.295,0.063 0.148,0.032 0.148,0.032 0.147,0.033 0.148,0.032 0.147,0.034 0.148,0.033 0.148,0.034 0.294,0.068 0.295,0.069 0.295,0.07 0.147,0.035 0.295,0.072 0.147,0.036 0.148,0.036 0.147,0.037 0.147,0.037 0.294,0.074 0.147,0.038 0.441,0.115 0.147,0.039 0.146,0.039 0.147,0.039 0.147,0.04 0.147,0.04 0.146,0.04 0.147,0.04 0.147,0.041 0.439,0.123 0.146,0.041 0.147,0.042 0.146,0.042 0.146,0.043 0.146,0.043 0.146,0.043 0.147,0.043 0.146,0.043 0.292,0.088 0.145,0.044 0.146,0.044 0.146,0.045 0.146,0.045 0.291,0.091 0.291,0.091 0.145,0.047 0.145,0.046 0.146,0.047 0.145,0.047 0.145,0.047 0.29,0.096 0.29,0.096 0.289,0.097 0.145,0.049 0.145,0.05 0.144,0.049 0.289,0.1 0.144,0.05 0.144,0.051 0.145,0.051 0.143,0.051 0.289,0.103 0.143,0.052 0.144,0.052 0.287,0.105 0.144,0.053 0.143,0.053 0.287,0.107 0.143,0.054 0.286,0.108 0.143,0.055 0.143,0.055 0.285,0.11 0.142,0.056 0.143,0.056 0.284,0.112 0.285,0.113 0.142,0.058 0.142,0.057 0.283,0.115 0.142,0.058 0.141,0.059 0.283,0.117 0.141,0.059 0.141,0.059 0.141,0.06 0.141,0.06 0.141,0.06 0.14,0.06 0.141,0.06 0.14,0.061 0.14,0.061 0.14,0.061 0.141,0.062 0.139,0.061 0.14,0.062 0.14,0.062 0.139,0.063 0.14,0.063 0.14,0.062 0.139,0.063 0.139,0.064 0.139,0.063 0.139,0.064 0.278,0.129 0.138,0.064 0.138,0.065 0.138,0.065 0.139,0.065 0.414,0.197 0.137,0.066 0.275,0.133 0.137,0.067 0.138,0.067 0.137,0.068 0.136,0.067 0.137,0.068 0.273,0.136 0.272,0.137 0.272,0.138 0.272,0.139 0.271,0.14 0.27,0.14 0.135,0.071 0.135,0.071 0.134,0.071 0.269,0.143 0.268,0.143 0.134,0.072 0.134,0.073 0.133,0.073 0.134,0.072 0.266,0.147 0.133,0.073 0.133,0.074 0.133,0.074 0.132,0.074 0.133,0.074 0.131,0.075 0.133,0.074 0.132,0.075 0.131,0.076 0.132,0.075 0.262,0.151 0.131,0.076 0.132,0.076 0.13,0.077 0.131,0.076 0.13,0.077 0.13,0.077 0.131,0.077 0.13,0.078 0.129,0.077 0.13,0.078 0.129,0.078 0.387,0.235 0.129,0.079 0.129,0.079 0.128,0.079 0.128,0.079 0.128,0.08 0.128,0.08 0.128,0.08 0.127,0.08 0.255,0.161 0.254,0.161 0.126,0.082 0.127,0.081 0.378,0.245 0.126,0.082 0.125,0.083 0.126,0.082 0.25,0.165 0.249,0.166 0.125,0.084 0.248,0.167 0.124,0.084 0.124,0.084 0.123,0.084 0.123,0.084 0.124,0.085 0.245,0.17 0.245,0.17 0.122,0.085 0.122,0.086 0.122,0.086"
       style="fill:none;stroke:currentColor;stroke-width:2;stroke-linecap:butt;stroke-linejoin:miter;stroke-miterlimit:10;stroke-dasharray:none;stroke-opacity:1"
       id="path841"
       inkscape:connector-curvature="0" /><path
       d="M 70.8661,156.094 H 240.945"
       style="fill:none;stroke:currentColor;stroke-width:2;stroke-linecap:butt;stroke-linejoin:miter;stroke-miterlimit:10;stroke-dasharray:none;stroke-opacity:1"
       id="path843"
       inkscape:connector-curvature="0" /><path
       d="m 172.419,239.529 c 46.048,-9.114 76.035,-53.899 66.921,-99.948 -9.114,-46.0485 -53.899,-76.0346 -99.948,-66.9206 -46.0485,9.114 -76.0346,53.8986 -66.9206,99.9476 9.114,46.048 53.8986,76.035 99.9476,66.921 z"
       style="fill:none;stroke:currentColor;stroke-width:2;stroke-linecap:butt;stroke-linejoin:miter;stroke-miterlimit:10;stroke-dasharray:none;stroke-opacity:1"
       id="path845"
       inkscape:connector-curvature="0" /><path
       d="m 258.809,210.689 c 2.74,-5.18 5.077,-10.545 7.001,-16.045 l -71.127,-54.323 -17.009,16.29 -40.56,-31.349 -28.5,31.079 -59.9117,-45.79 c -2.3418,5.529 -4.2507,11.224 -5.7148,17.029 l 67.6525,51.705 28.442,-31.016 39.778,30.745 17.071,-16.349 z"
       style="fill:currentColor;fill-opacity:1;fill-rule:nonzero;stroke:currentColor;stroke-width:2;stroke-linecap:butt;stroke-linejoin:miter;stroke-miterlimit:10;stroke-dasharray:none;stroke-opacity:1"
       id="path847"
       inkscape:connector-curvature="0" /><path
       d="m 245.446,175.316 c 0.472,-2.214 0.864,-4.457 1.173,-6.726 l 25.643,-6.055 v -12.881 l -25.643,-6.055 c -0.901,-6.615 -2.507,-13.009 -4.738,-19.093 l 19.795,-17.396 -6.034,-11.3747 -25.484,6.7167 c -3.849,-5.3306 -8.255,-10.225 -13.132,-14.6061 l 9.335,-24.7004 -10.657,-7.2019 -19.341,17.9121 c -4.892,-2.4159 -10.031,-4.401 -15.37,-5.9127 l -2.413,-26.2749 -13.027,-1.7941 0.013,31.725 c 42.393,4.8024 75.379,40.827 75.379,84.495 0,5.049 -0.441,9.995 -1.286,14.802 z M 75.805,127.489 C 86.6123,97.2662 114.051,74.9234 147.073,71.5093 L 147.127,39.874 133.5,41.6681 131.09,67.943 c -5.341,1.5145 -10.478,3.4968 -15.37,5.9155 l -19.3435,-17.9149 -10.6568,7.2019 9.335,24.7004 c -4.8778,4.3811 -9.2838,9.2755 -13.1326,14.6061 l -25.4835,-6.7167 -6.0347,11.3747 8.4313,7.409 z m -15.2746,17.274 -20.7093,4.891 v 12.881 l 25.6398,6.055 c 0.9011,6.612 2.5071,13.004 4.7385,19.093 l -19.7955,17.399 6.0347,11.369 25.4835,-6.72 c 3.8488,5.334 8.2548,10.228 13.1326,14.612 l -9.335,24.698 10.6568,7.202 19.3435,-17.913 c 4.892,2.416 10.029,4.401 15.37,5.916 l 2.41,26.272 13.627,1.797 -0.049,-31.635 c -42.793,-4.422 -76.2119,-40.632 -76.2119,-84.586 0,-1.132 0.0222,-2.259 0.0662,-3.381 z M 232.032,194.012 C 219.45,219.2 194.733,237.287 165.563,240.59 l -0.01,31.725 13.027,-1.797 2.413,-26.272 c 5.339,-1.515 10.478,-3.5 15.37,-5.916 l 19.341,17.913 10.657,-7.202 -9.335,-24.698 c 4.877,-4.384 9.283,-9.278 13.132,-14.612 l 25.484,6.72 1.664,-3.135 z"
       style="fill:none;stroke:currentColor;stroke-width:2;stroke-linecap:butt;stroke-linejoin:miter;stroke-miterlimit:10;stroke-dasharray:none;stroke-opacity:1"
       id="path849"
       inkscape:connector-curvature="0" /></g></svg>